<svg width="251" height="65" viewBox="0 0 251 65" fill="none" xmlns="http://www.w3.org/2000/svg">
<path d="M38.3267 27.4345C38.3267 27.4345 37.454 35.4324 38.9474 41.2451C40.114 45.7857 42.5688 47.8884 49.0338 47.6073C56.0096 47.304 57.8788 43.1072 58.1892 36.5899C58.7955 28.9211 58.1892 16.7256 58.1892 16.7256" stroke="white" stroke-width="6" stroke-miterlimit="1.30541" stroke-linecap="round"/>
<rect x="36.3095" y="18.5891" width="3.72421" height="3.72421" rx="1.8621" transform="rotate(-90 36.3095 18.5891)" fill="white" stroke="white" stroke-width="3.72421"/>
<path d="M78.3809 16.7256C78.3809 16.7256 83.3465 16.7256 88.3121 16.7256C90.6532 16.7256 93.5947 18.0886 94.2087 22.1567C95.4501 30.381 86.45 30.0707 86.45 30.0707" stroke="white" stroke-width="6" stroke-miterlimit="1.30541" stroke-linecap="round"/>
<rect x="69.4152" y="26.4668" width="6.44841" height="6.44841" rx="3.22421" transform="rotate(-90 69.4152 26.4668)" fill="white" stroke="white"/>
<rect x="98.0605" y="49.0054" width="6.44841" height="15.4203" rx="3.22421" transform="rotate(151.902 98.0605 49.0054)" fill="white" stroke="white"/>
<rect x="75.8636" y="50.9844" width="6.44841" height="19.4831" rx="3.22421" transform="rotate(180 75.8636 50.9844)" fill="white" stroke="white"/>
<rect x="0.5" y="28.707" width="6.44841" height="22.2763" rx="3.22421" fill="white" stroke="white"/>
<rect x="20.3624" y="51.2939" width="6.44841" height="6.44841" rx="3.22421" transform="rotate(-90 20.3624 51.2939)" fill="white" stroke="white"/>
<rect x="20.3624" y="19.9482" width="6.44841" height="6.44841" rx="3.22421" transform="rotate(-90 20.3624 19.9482)" fill="white" stroke="white"/>
<rect x="0.5" y="50.9834" width="6.44841" height="16.0693" rx="3.22421" transform="rotate(-90 0.5 50.9834)" fill="white" stroke="white"/>
<rect x="10.7415" y="35.1553" width="6.44841" height="16.0693" rx="3.22421" transform="rotate(-90 10.7415 35.1553)" fill="white" stroke="white"/>
<rect x="0.5" y="19.9482" width="6.44841" height="15.7589" rx="3.22421" transform="rotate(-90 0.5 19.9482)" fill="white" stroke="white"/>
<mask id="path-13-inside-1_57_510" fill="white">
<path d="M129.217 18.4637C130.079 17.1078 131.896 16.693 133.107 17.7501C135.498 19.8385 137.347 22.4969 138.471 25.4984C139.937 29.413 140.088 33.6984 138.902 37.7066C137.716 41.7149 135.258 45.2281 131.898 47.7153C128.539 50.2025 124.461 51.5283 120.281 51.4925C116.101 51.4566 112.047 50.0609 108.731 47.5165C105.414 44.972 103.016 41.417 101.9 37.389C100.783 33.361 101.008 29.0789 102.54 25.19C103.715 22.2083 105.61 19.582 108.037 17.535C109.265 16.4987 111.075 16.9447 111.914 18.3152C112.753 19.6857 112.294 21.4581 111.136 22.5725C109.755 23.9018 108.666 25.5195 107.955 27.3238C106.886 30.0367 106.729 33.024 107.508 35.834C108.287 38.644 109.96 41.124 112.273 42.8991C114.587 44.6741 117.415 45.6478 120.331 45.6728C123.247 45.6978 126.092 44.7729 128.436 43.0378C130.779 41.3027 132.494 38.8518 133.322 36.0556C134.149 33.2594 134.043 30.2698 133.021 27.5389C132.341 25.7227 131.28 24.0865 129.922 22.7338C128.783 21.5996 128.354 19.8196 129.217 18.4637Z"/>
</mask>
<path d="M129.217 18.4637C130.079 17.1078 131.896 16.693 133.107 17.7501C135.498 19.8385 137.347 22.4969 138.471 25.4984C139.937 29.413 140.088 33.6984 138.902 37.7066C137.716 41.7149 135.258 45.2281 131.898 47.7153C128.539 50.2025 124.461 51.5283 120.281 51.4925C116.101 51.4566 112.047 50.0609 108.731 47.5165C105.414 44.972 103.016 41.417 101.9 37.389C100.783 33.361 101.008 29.0789 102.54 25.19C103.715 22.2083 105.61 19.582 108.037 17.535C109.265 16.4987 111.075 16.9447 111.914 18.3152C112.753 19.6857 112.294 21.4581 111.136 22.5725C109.755 23.9018 108.666 25.5195 107.955 27.3238C106.886 30.0367 106.729 33.024 107.508 35.834C108.287 38.644 109.96 41.124 112.273 42.8991C114.587 44.6741 117.415 45.6478 120.331 45.6728C123.247 45.6978 126.092 44.7729 128.436 43.0378C130.779 41.3027 132.494 38.8518 133.322 36.0556C134.149 33.2594 134.043 30.2698 133.021 27.5389C132.341 25.7227 131.28 24.0865 129.922 22.7338C128.783 21.5996 128.354 19.8196 129.217 18.4637Z" fill="white" stroke="white" stroke-width="2" mask="url(#path-13-inside-1_57_510)"/>
<rect x="117.5" y="19.9482" width="6.44841" height="6.44841" rx="3.22421" transform="rotate(-90 117.5 19.9482)" fill="white" stroke="white"/>
<path d="M156.429 34.9716V52H148.26V12.7273H156.199V27.7422H156.544C157.209 26.0036 158.283 24.642 159.766 23.6577C161.249 22.6605 163.109 22.1619 165.346 22.1619C167.391 22.1619 169.175 22.6094 170.696 23.5043C172.23 24.3864 173.419 25.6584 174.263 27.3203C175.119 28.9695 175.541 30.9446 175.528 33.2457V52H167.359V34.7031C167.372 32.8878 166.912 31.4751 165.979 30.4652C165.058 29.4553 163.767 28.9503 162.105 28.9503C160.993 28.9503 160.009 29.1868 159.152 29.6598C158.308 30.1328 157.643 30.8232 157.158 31.7308C156.685 32.6257 156.442 33.706 156.429 34.9716ZM203.006 39.4588V22.5455H211.175V52H203.332V46.6499H203.025C202.36 48.3757 201.254 49.7628 199.707 50.8111C198.173 51.8594 196.3 52.3835 194.089 52.3835C192.12 52.3835 190.388 51.9361 188.892 51.0412C187.396 50.1463 186.227 48.8743 185.383 47.2251C184.552 45.576 184.13 43.6009 184.117 41.2997V22.5455H192.286V39.8423C192.299 41.581 192.766 42.9553 193.686 43.9652C194.607 44.9751 195.84 45.4801 197.387 45.4801C198.371 45.4801 199.292 45.2564 200.148 44.8089C201.005 44.3487 201.695 43.6712 202.219 42.7763C202.756 41.8814 203.018 40.7756 203.006 39.4588ZM220.022 52V12.7273H228.191V27.4929H228.441C228.799 26.7003 229.316 25.8949 229.994 25.0767C230.684 24.2457 231.579 23.5554 232.679 23.0057C233.791 22.4432 235.172 22.1619 236.821 22.1619C238.968 22.1619 240.95 22.7244 242.765 23.8494C244.581 24.9616 246.032 26.6428 247.118 28.8928C248.205 31.13 248.748 33.9361 248.748 37.3111C248.748 40.5966 248.218 43.3707 247.157 45.6335C246.108 47.8835 244.677 49.5902 242.861 50.7536C241.059 51.9041 239.039 52.4794 236.802 52.4794C235.216 52.4794 233.868 52.2173 232.755 51.6932C231.656 51.169 230.755 50.5107 230.052 49.718C229.348 48.9126 228.811 48.1009 228.441 47.2827H228.076V52H220.022ZM228.019 37.2727C228.019 39.0241 228.262 40.5518 228.748 41.8558C229.233 43.1598 229.936 44.1761 230.857 44.9048C231.777 45.6207 232.896 45.9787 234.213 45.9787C235.542 45.9787 236.667 45.6143 237.588 44.8857C238.508 44.1442 239.205 43.1214 239.678 41.8175C240.164 40.5007 240.407 38.9858 240.407 37.2727C240.407 35.5724 240.17 34.0767 239.697 32.7855C239.224 31.4943 238.527 30.4844 237.607 29.7557C236.686 29.027 235.555 28.6626 234.213 28.6626C232.883 28.6626 231.758 29.0142 230.838 29.7173C229.93 30.4205 229.233 31.4176 228.748 32.7088C228.262 34 228.019 35.5213 228.019 37.2727Z" fill="#05FFFE"/>
</svg>
